<?xml version="1.0" encoding="UTF-8" standalone="no"?>
<!-- Created with Inkscape (http://www.inkscape.org/) -->

<svg
   width="211.42659mm"
   height="162.76497mm"
   viewBox="0 0 211.42659 162.76497"
   version="1.1"
   id="svg1"
   xml:space="preserve"
   xmlns="http://www.w3.org/2000/svg"
   xmlns:svg="http://www.w3.org/2000/svg"><defs
     id="defs1" /><g
     id="layer1"
     transform="translate(-6.7844452,-11.715746)"><path
       style="fill:#0e86d4;fill-opacity:1;stroke-width:0.264583"
       d="m 53.222048,11.890171 c 13.120364,-0.745629 26.086532,0.969741 38.582283,3.801141 8.202269,2.344047 15.499119,5.464171 20.529799,10.526733 4.27786,5.199877 3.39652,6.489248 2.33012,13.462911 l 20.51995,77.846654 c 6.05637,24.18748 19.49495,27.46804 31.77828,32.96347 10.8373,5.74774 20.48103,9.45747 37.61148,13.19814 -11.74054,2.96585 -23.63067,5.81203 -37.60561,6.99036 -8.453,0.18832 -17.18893,1.03683 -24.34267,-1.80645 -16.30674,-7.12059 -20.55579,-16.55998 -25.37241,-25.89021 C 110.06442,127.63769 108.417,112.68065 105.079,97.763293 97.388473,116.31387 83.976876,128.26325 71.945397,141.1706 c -9.49308,9.60449 -18.986159,16.69271 -28.479239,21.74778 -6.571816,3.49092 -8.512789,4.52267 -14.633675,6.66079 -6.323843,1.74114 -12.061464,4.03839 -22.0480378,4.90155 6.7902928,-4.37853 13.5805858,-8.24799 20.3708778,-13.89246 4.056698,-2.96087 10.81318,-9.77977 23.895528,-24.92527 9.490726,-12.75647 16.368714,-23.27345 22.70686,-33.32771 8.014502,-13.570339 11.171381,-21.570081 13.898324,-31.956673 0.109027,-4.2991 -1.112299,-6.46519 -2.506631,-9.467675 5.501869,2.162862 8.607994,4.924661 12.427304,7.508163 C 95.236634,60.383175 92.856345,52.307039 90.068545,43.823392 88.505555,39.061787 83.870741,33.422519 79.194655,27.771458 75.889365,24.358225 72.520162,21.040861 68.320767,18.968785 63.132536,16.283275 57.95881,14.124212 53.222048,11.890171 Z"
       id="path16" /></g></svg>
