<?xml version="1.0" encoding="UTF-8" standalone="no"?>
<!-- Created with Inkscape (http://www.inkscape.org/) -->

<svg
   width="1230"
   height="300"
   viewBox="0 0 1230 300"
   version="1.1"
   id="svg1"
   xml:space="preserve"
   inkscape:version="1.4 (e7c3feb100, 2024-10-09)"
   sodipodi:docname="fresh.svg"
   xmlns:inkscape="http://www.inkscape.org/namespaces/inkscape"
   xmlns:sodipodi="http://sodipodi.sourceforge.net/DTD/sodipodi-0.dtd"
   xmlns="http://www.w3.org/2000/svg"
   xmlns:svg="http://www.w3.org/2000/svg"><sodipodi:namedview
     id="namedview1"
     pagecolor="#ffffff"
     bordercolor="#000000"
     borderopacity="0.25"
     inkscape:showpageshadow="2"
     inkscape:pageopacity="0.0"
     inkscape:pagecheckerboard="0"
     inkscape:deskcolor="#d1d1d1"
     inkscape:document-units="mm"
     inkscape:zoom="0.88264301"
     inkscape:cx="671.27932"
     inkscape:cy="141.62011"
     inkscape:window-width="1807"
     inkscape:window-height="931"
     inkscape:window-x="0"
     inkscape:window-y="0"
     inkscape:window-maximized="1"
     inkscape:current-layer="layer1" /><defs
     id="defs1"><rect
       x="332.31536"
       y="20.834819"
       width="508.36957"
       height="259.91437"
       id="rect1" /></defs><g
     inkscape:label="Layer 1"
     inkscape:groupmode="layer"
     id="layer1"><path
       style="fill:#0e86d4;fill-opacity:1;stroke-width:0.459052"
       d="m 228.82321,8.1259492 c 22.76383,-1.2936743 45.26012,1.6824949 66.94026,6.5949788 14.23093,4.066918 26.89096,9.480333 35.61917,18.263878 7.42208,9.021787 5.89298,11.258846 4.04277,23.358153 l 35.60211,135.063921 c 10.50781,41.96528 33.82374,47.65705 55.13532,57.19162 18.80271,9.97234 35.53459,16.40872 65.25591,22.89877 -20.36984,5.14575 -40.99921,10.08388 -65.24573,12.12828 -14.66594,0.32673 -29.82279,1.79889 -42.23453,-3.13419 -28.2922,-12.35423 -35.66429,-28.73157 -44.02113,-44.91951 -12.47266,-26.62398 -15.33093,-52.57445 -21.12235,-78.45605 -13.34305,32.18525 -36.61218,52.91742 -57.48681,75.31167 -16.47049,16.66379 -32.94099,28.96185 -49.41146,37.7324 -11.40211,6.05675 -14.76971,7.84683 -25.38944,11.55646 -10.97188,3.0209 -20.92664,7.00661 -38.25334,8.50419 11.78116,-7.59674 23.56232,-14.31026 35.34347,-24.10342 7.03838,-5.13711 18.76086,-16.9679 41.45873,-43.24534 16.46642,-22.13247 28.39973,-40.37944 39.39641,-57.82356 13.90517,-23.54454 19.38234,-37.42408 24.1136,-55.44482 0.18915,-7.45895 -1.92984,-11.217107 -4.34901,-16.426426 9.54574,3.75258 14.93487,8.544296 21.56137,13.026676 -4.06003,-13.942329 -8.18982,-27.954429 -13.02666,-42.673545 -2.71179,-8.261382 -10.7532,-18.045523 -18.8662,-27.85011 -5.73468,-5.921953 -11.58025,-11.677581 -18.8662,-15.272634 -9.00157,-4.659354 -17.978,-8.40533 -26.19626,-12.2813918 z"
       id="path16" /><text
       xml:space="preserve"
       id="text1"
       style="font-size:153.942px;text-align:start;writing-mode:lr-tb;direction:ltr;white-space:pre;shape-inside:url(#rect1);display:inline;fill:#003060;fill-opacity:1"
       transform="matrix(1.7664041,0,0,1.9085118,-87.609528,-46.257095)"><tspan
         x="332.31445"
         y="160.90199"
         id="tspan4"><tspan
           style="font-weight:bold;font-family:Arimo;-inkscape-font-specification:'Arimo Bold'"
           id="tspan3">ditio</tspan></tspan></text></g></svg>
